<svg xmlns="http://www.w3.org/2000/svg" viewBox="0 0 982.27 831.49"><defs><style>.cls-1{isolation:isolate;}.cls-2{fill:#4bbb8b;}.cls-3{fill:#005792;}.cls-4{fill:#152248;}.cls-5{fill:#fff;}.cls-6{fill:#112249;}.cls-7{fill:#71499d;opacity:0.4;}.cls-7,.cls-8{mix-blend-mode:multiply;}.cls-8{fill:#838383;opacity:0.3;}.cls-10,.cls-11,.cls-12,.cls-13,.cls-9{fill:none;stroke-miterlimit:10;}.cls-12,.cls-13,.cls-9{stroke:#152248;}.cls-10,.cls-11,.cls-12,.cls-9{stroke-width:3px;}.cls-10,.cls-11{stroke:#112249;}.cls-11,.cls-12{stroke-linecap:round;}.cls-13{stroke-width:0.5px;}.cls-14{opacity:0.9;}</style></defs><title>Icon</title><g class="cls-1"><g id="Layer_1" data-name="Layer 1"><path class="cls-2" d="M621.71,385.87a7.37,7.37,0,0,1-9.8,3.55L581.17,375a7.37,7.37,0,0,1-3.55-9.8l1.17-2.5a7.37,7.37,0,0,1,9.8-3.56l30.74,14.37a7.37,7.37,0,0,1,3.55,9.8Z" transform="translate(-531.56 -183.9)"/><path class="cls-3" d="M619.32,373.57,604,366.38l-7.41,15.85,15.37,7.19a7.37,7.37,0,0,0,9.8-3.55l1.17-2.5A7.37,7.37,0,0,0,619.32,373.57Z" transform="translate(-531.56 -183.9)"/><path class="cls-2" d="M624,391.23a7.37,7.37,0,0,1-5.08,9.1l-32.64,9.28a7.37,7.37,0,0,1-9.1-5.07l-.76-2.65a7.38,7.38,0,0,1,5.08-9.11l32.64-9.27a7.37,7.37,0,0,1,9.1,5.07Z" transform="translate(-531.56 -183.9)"/><path class="cls-4" d="M614.18,383.5l-16.32,4.64L602.63,405,619,400.33a7.37,7.37,0,0,0,5.08-9.1l-.75-2.65A7.37,7.37,0,0,0,614.18,383.5Z" transform="translate(-531.56 -183.9)"/><path class="cls-5" d="M1215.45,436.36c-56.52-61-168.74-56.52-168.74-56.52-100.43-.41-154.91,44.71-154.91,44.71-63,49.19-75.22,128.09-75.22,128.09-11.38,30.49-2.44,41.05-2.44,41.05,8.94,15,1.63,27.25,1.63,27.25L774.69,710.4c-6.51,17.08,23.58,21.14,23.58,21.14,13.42-.4,15.45,7.73,15.45,7.73v7.32c-15,16.26,13,26,13,26-15.45,8.94-5.29,18.3-5.29,18.3,12.2,8.54,6.71,25.6,6.71,25.6C799.36,876.35,919,876.35,919,876.35c37.68,4.43,32.14,25.49,32.14,25.49v66.49l228.36-60.5c-3.29-124.1,50.87-190.18,50.87-190.18,33.17-49.75,41.06-122.41,41.06-122.41C1282.52,500.47,1215.45,436.36,1215.45,436.36Z" transform="translate(-531.56 -183.9)"/><path class="cls-2" d="M1233.19,522.42c-2-34.81-22.52-36.17-22.52-36.17-4.1-45-40.27-36.86-40.27-36.86-11.6-36.17-48.46-28.67-48.46-28.67-8.19-26.62-56-18.43-56-18.43-19.11-19.79-34.81.68-34.81.68-38.9-17.06-54.6,13.65-54.6,13.65-62.79-5.46-75.76,38.9-75.76,38.9-40.27,2.73-41.63,37.54-41.63,37.54-18.43,5.46-13,23.2-13,23.2-17.75,18.43-6.14,38.22-6.14,38.22h411.56C1257.76,525.83,1233.19,522.42,1233.19,522.42Z" transform="translate(-531.56 -183.9)"/><path class="cls-6" d="M1255.45,559.23H837.34L836,556.89c-4.47-7.62-8.85-25.84,5.1-42-.54-3.46-.84-9.61,2.24-15.36a21.92,21.92,0,0,1,11.53-9.95c1.55-9.23,8.88-34.79,42.62-38.5,4.27-9.87,21.11-39.65,68.68-39.65,2.57,0,5.22.09,7.9.26a41.77,41.77,0,0,1,35-18.61,58,58,0,0,1,20.92,4.26c3.42-3.31,10.12-8.41,18.88-8.41,6.55,0,12.87,2.8,18.82,8.34a115.26,115.26,0,0,1,14.32-.9c22.36,0,37.14,6.61,43.06,19.18,1.36-.12,3-.21,4.88-.21,9.93,0,33.39,2.9,43.68,28.85,1-.07,2.05-.12,3.26-.12,10.12,0,33.61,3.82,38.18,38.31,6.81,2.18,20.05,9.8,22.65,36.27a28.61,28.61,0,0,1,14.82,10.52c4.79,6.84,6.06,15.69,3.79,26.32Zm-412.39-9.48h404.56c.75-6.22-.22-11.3-2.92-15.15-4.38-6.25-12.09-7.48-12.17-7.49l-3.85-.53-.23-3.88C1226.71,492.91,1211,491,1210.28,491l-3.9-.38-.43-3.91c-2.49-27.38-17.21-33.13-29.12-33.13a28.28,28.28,0,0,0-5.4.47l-4.2.92-1.34-4.09c-6.9-21.51-23.39-26-36-26a40.21,40.21,0,0,0-7,.55l-4.19.83-1.27-4.08c-4.14-13.45-21.57-16.27-35.47-16.27a101.4,101.4,0,0,0-15.17,1.12l-2.47.42-1.74-1.8c-4.6-4.76-9.23-7.18-13.76-7.18-7.95,0-13.82,7.38-13.88,7.45l-2.26,2.95-3.4-1.49c-7.2-3.16-14-4.76-20.26-4.76a32.47,32.47,0,0,0-28.23,16.25l-1.46,2.8-3.16-.25c-3.42-.3-6.79-.45-10-.45-49.71,0-60.68,35.6-60.79,36l-.93,3.18-3.3.22c-35.61,2.41-37.17,31.75-37.22,33l-.13,3.39-3.26,1c-13,3.86-10.43,15.08-9.78,17.3l.78,2.64-1.9,2C837.82,531.81,841,544.58,843.06,549.76Z" transform="translate(-531.56 -183.9)"/><path class="cls-6" d="M897.45,451.07l7,9a35.76,35.76,0,0,1,23.4,6.85S918.22,450,897.45,451.07Z" transform="translate(-531.56 -183.9)"/><path class="cls-6" d="M854.84,489.57l8.93,7.08a22.47,22.47,0,0,1,19.4,5.16S876.56,483.81,854.84,489.57Z" transform="translate(-531.56 -183.9)"/><path class="cls-6" d="M841.06,514.88l10.45,2.67s11.13-8,21.93,0C873.44,517.55,860.58,497.64,841.06,514.88Z" transform="translate(-531.56 -183.9)"/><path class="cls-6" d="M979.31,421.6,974,411.68a31.66,31.66,0,0,0,2,31.07A48,48,0,0,1,979.31,421.6Z" transform="translate(-531.56 -183.9)"/><path class="cls-6" d="M1067.62,397.27l-3.32,10.11s19.44,2.25,19.44,23.13C1083.74,430.52,1094.71,409.39,1067.62,397.27Z" transform="translate(-531.56 -183.9)"/><path class="cls-6" d="M1098.86,440.24a31.43,31.43,0,0,1,19.81-14l6.33-10.65C1098.57,419.31,1098.86,440.24,1098.86,440.24Z" transform="translate(-531.56 -183.9)"/><path class="cls-6" d="M1173.57,444.19l-6.35,10.74s3.17,9.8,0,23.84C1167.22,478.77,1182.37,470.1,1173.57,444.19Z" transform="translate(-531.56 -183.9)"/><path class="cls-6" d="M1190,497.85c6.48-7.2,16.41-7.27,16.41-7.27l8.62-8.21C1192.86,480.58,1190,497.85,1190,497.85Z" transform="translate(-531.56 -183.9)"/><path class="cls-6" d="M1211.22,531.7c10.44-7.2,17.46-5.13,17.46-5.13l9-7.93C1218.34,516,1211.22,531.7,1211.22,531.7Z" transform="translate(-531.56 -183.9)"/><path class="cls-6" d="M887.58,519.09c-14.9,11-16.24,29.23-16.29,30l9.45.63a78,78,0,0,1,12.53-23.05c8.83-11.07,39.65-12.91,39.65-12.91C913.91,509.15,898.65,510.94,887.58,519.09Z" transform="translate(-531.56 -183.9)"/><path class="cls-6" d="M958.61,514.5c3.08-11.25,2.28-20,.33-26.36,6.38-4.62,10.82-9.83,13.22-15.6a35,35,0,0,0,6.76.72,26.46,26.46,0,0,0,8-1.23c11.75,2,18,14.71,18,14.71a24.74,24.74,0,0,0-8.91-19.85,31.18,31.18,0,0,0,8.81-14.85s-6.74,9.42-17.15,11.72c-3.91.86-8.3.47-13.34-.48.66-13.12-8.18-23.24-8.58-23.69,0,0,5.2,13.51,1.23,24.67-1.83,5.14-6.35,10.56-12.06,15.07a22.83,22.83,0,0,0-3.35-4.1l-.42-.33c-9.25-6.61-18.45-8.9-27.37-6.8-15.32,3.62-23.64,19.06-24,19.72a55.77,55.77,0,0,1,26.16-10.49,26.72,26.72,0,0,1,19.39,5.08c12.38,10.13,7.27,47.49,7.27,47.49,1-1.87,1.78-3.68,2.54-5.45,13,14.35,11.2,28.68,11.1,29.35l9.37,1.42C975.7,554.31,978.65,533.34,958.61,514.5Z" transform="translate(-531.56 -183.9)"/><path class="cls-6" d="M1030.58,474.21c12.47-15.43,36.53-17.92,36.53-17.92-1.38-.59-9.64-2-11.67-2.31,12.88-16.17,3.95-30.13,3.84-30.3,0,0,0,17.58-19.29,32a34.39,34.39,0,0,0-6.9,3.47,60.65,60.65,0,0,0-1-16s-2.51,32.31-27.6,55.9c-9.42-11.86-26-15.09-26.82-15.23,0,0,15.35,12.66,21.45,24.18,3.25,6.13,5.56,23.41,1.62,32.44,0,0,14.62-14,8.46-32.86A69.08,69.08,0,0,0,1030.58,474.21Z" transform="translate(-531.56 -183.9)"/><path class="cls-6" d="M1045.64,433.34c-36.88-24.35-63.27,9.08-63.53,9.42C982.1,442.76,1010.53,422.08,1045.64,433.34Z" transform="translate(-531.56 -183.9)"/><path class="cls-6" d="M1049.65,529.79c2.48-14.29,1.21-25.07-3.71-32.22,25.93-39.33,58.1-51.28,58.1-51.28-1.53.08-36.63,2.46-65.21,44.84a18.55,18.55,0,0,0-9.16-2.26s19.29,14.79,10.16,41.89l-.58,3.26,2.78,1.74c.34.21,8.38,5.44,7.44,21.32l9.46.56C1059.85,541.84,1053.5,533.41,1049.65,529.79Z" transform="translate(-531.56 -183.9)"/><path class="cls-6" d="M1150.86,499c8.84,0,23.13-2.64,33.09-17.59,0,0-22.71,12.92-35.27,8.05a35.53,35.53,0,0,0-4.49-16.76l-.16-.25c-8.27-11.73-16.93-17.11-25.72-16-15,1.88-23,21.85-23.87,24.12,0,0,17.08-13.72,25.06-14.72,6.24-.78,12.49,6,16.68,11.91.68,1.18,5.5,10.26,1.38,20.58a14.43,14.43,0,0,0-4.81,1.1c-11.68,4.92-12.43,23.81-12.48,25.95,0,0,7-15.8,16.17-17.22,3.78-.59,9.84,1.68,17.37,8.65,1.67,2,15,19,0,34.39l6.8,6.6c17.25-17.8,7.66-38.77.17-47.38l-.34-.35c-4.89-4.57-9.39-7.79-13.54-9.7.18-.51.32-1,.47-1.52C1148.42,498.93,1149.57,499,1150.86,499Z" transform="translate(-531.56 -183.9)"/><path class="cls-6" d="M1190.63,510.71c-7.82-7.22-15.64-7.09-16.51-7,0,0,28.37,13.76,22.24,52.15l9.47-.33C1205.08,534.39,1200,519.33,1190.63,510.71Z" transform="translate(-531.56 -183.9)"/><path class="cls-6" d="M1107.67,494.14a49,49,0,0,0-20.49,3.39c-2.43-14.78-13.91-19.48-14.48-19.7,0,0,5.2,12.37,5.45,24.88a32.76,32.76,0,0,0-10.4,13.92,29.35,29.35,0,0,0-7.08-5s13.13,16.59,12.11,45.51l9.47.33c.51-14.61-3-24.9-7.25-32,3.62-18.37,20.32-21.51,28.69-21.9,3.72,7.44-6.28,22.94-6.28,22.94,23.79-21,25.77-44.33,22.17-49.25C1119.6,477.33,1117.52,488.06,1107.67,494.14Z" transform="translate(-531.56 -183.9)"/><path class="cls-6" d="M1020.68,531.64a44.76,44.76,0,0,1,18.57,2.38l10.4-4.23C1033.79,520.09,1020.68,531.64,1020.68,531.64Z" transform="translate(-531.56 -183.9)"/><path class="cls-3" d="M818.67,542.74c-1.52,6.24-2.09,9.92-2.09,9.92-11.38,30.49-2.44,41.05-2.44,41.05,8.94,15,1.63,27.25,1.63,27.25L774.69,710.4c-6.51,17.08,23.58,21.14,23.58,21.14,13.42-.4,15.45,7.73,15.45,7.73v7.32c-15,16.26,13,26,13,26-15.45,8.94-5.29,18.3-5.29,18.3,12.2,8.54,6.71,25.6,6.71,25.6C799.36,876.35,919,876.35,919,876.35c37.68,4.43,32.14,25.49,32.14,25.49v66.49l228.36-60.5c-3.29-124.1,50.87-190.18,50.87-190.18,33.17-49.75,41.06-122.41,41.06-122.41a181.31,181.31,0,0,0-1.54-52.5Z" transform="translate(-531.56 -183.9)"/><path class="cls-7" d="M951.18,907.66c52.32-21.64,100.44-66.25,100.44-66.25C980,876.42,911,876.1,910.73,876.1c5.15.25,8.31.26,8.31.26,37.68,4.43,32.14,25.49,32.14,25.49Z" transform="translate(-531.56 -183.9)"/><path class="cls-6" d="M1029.92,397.27l2.74,11.47s12.53,7.55,11.82,18.41C1044.48,427.15,1051.73,405.14,1029.92,397.27Z" transform="translate(-531.56 -183.9)"/><ellipse class="cls-8" cx="543.76" cy="815.88" rx="171.61" ry="15.61"/><circle class="cls-9" cx="45.05" cy="426" r="43.56"/><circle class="cls-9" cx="68.68" cy="202.98" r="43.56"/><circle class="cls-9" cx="270.95" cy="122.02" r="43.56"/><circle class="cls-9" cx="937.22" cy="426" r="43.56"/><circle class="cls-9" cx="913.59" cy="202.98" r="43.56"/><circle class="cls-9" cx="711.32" cy="122.02" r="43.56"/><circle class="cls-9" cx="491.14" cy="45.06" r="43.56"/><polyline class="cls-10" points="104.48 227.78 233.6 294.87 331.19 294.87"/><polyline class="cls-11" points="79.52 399.38 228.04 340.68 308.5 340.68"/><line class="cls-11" x1="300.05" y1="154.43" x2="390.83" y2="243.25"/><polyline class="cls-9" points="877.79 227.78 748.67 294.87 678.28 294.87"/><polyline class="cls-12" points="902.75 399.38 754.23 340.68 708.23 340.68"/><line class="cls-12" x1="682.22" y1="154.43" x2="597.95" y2="236.88"/><line class="cls-12" x1="491.14" y1="88.61" x2="491.14" y2="215.81"/><path class="cls-3" d="M813.11,283.94q1,0,2.09.11c4.52.44,9.75,4.58,10.38,12.51v2.64c-.59,7.59-6.33,17-23.07,28.7-16.75-11.75-22.48-21.11-23.07-28.7v-2.64c.64-7.93,5.87-12.07,10.39-12.51.74-.07,1.44-.11,2.09-.11,5.22,0,7.73,2.26,10.6,5.68,2.87-3.42,5.37-5.68,10.6-5.68" transform="translate(-531.56 -183.9)"/><path class="cls-2" d="M1045.17,243.55v-7.84h-3.58a14.64,14.64,0,0,0-1.42-3.41l2.53-2.53-5.54-5.54-2.53,2.53a14.72,14.72,0,0,0-3.41-1.42v-3.57h-7.84v3.57a14.75,14.75,0,0,0-3.41,1.42l-2.53-2.53-5.54,5.54,2.53,2.53a14.74,14.74,0,0,0-1.41,3.41h-3.58v7.84H1013a14.72,14.72,0,0,0,1.41,3.41l-2.53,2.53,5.54,5.54,2.53-2.53a14.74,14.74,0,0,0,3.41,1.42v3.57h7.84v-3.57a14.71,14.71,0,0,0,3.41-1.42l2.53,2.53,5.54-5.54-2.53-2.53a14.62,14.62,0,0,0,1.42-3.41Zm-17.86,3.06a7,7,0,1,1,7-7A7,7,0,0,1,1027.31,246.61Z" transform="translate(-531.56 -183.9)"/><path class="cls-2" d="M1014.47,223.78v-2.34a9.61,9.61,0,0,0,2.23-.93l1.66,1.66,3.63-3.63-1.66-1.66a9.65,9.65,0,0,0,.93-2.23h2.34v-5.13h-2.34a9.67,9.67,0,0,0-.93-2.23l1.66-1.66-3.63-3.63-1.66,1.66a9.59,9.59,0,0,0-2.23-.93v-2.34h-5.13v2.34a9.62,9.62,0,0,0-2.23.93l-1.66-1.66-3.63,3.63,1.65,1.66a9.62,9.62,0,0,0-.93,2.23h-2.34v5.13h2.34a9.63,9.63,0,0,0,.93,2.23l-1.65,1.66,3.63,3.63,1.66-1.66a9.63,9.63,0,0,0,2.23.93v2.34Zm-7.13-11.68a4.56,4.56,0,1,1,4.56,4.56A4.57,4.57,0,0,1,1007.34,212.1Z" transform="translate(-531.56 -183.9)"/><path class="cls-2" d="M1259.37,296.25A16.49,16.49,0,1,0,1234,310.12a9,9,0,0,1,3,6.93v6.2h11.72v-7.13a9.09,9.09,0,0,1,2.83-5.87A16.47,16.47,0,0,0,1259.37,296.25Z" transform="translate(-531.56 -183.9)"/><path class="cls-4" d="M1236.44,319v6.65a6.44,6.44,0,0,0,12.88,0V319Z" transform="translate(-531.56 -183.9)"/><path class="cls-13" d="M1245.56,320c.45-1.72.71-3.5,1.09-5.23.62-2.83,1.11-5.68,1.79-8.49.17-.69.19-1.4.34-2.09.22-1,.74-2.3,1.77-2.66a1.46,1.46,0,0,1,1.87,1.26,3.32,3.32,0,0,1,0,1.56c-.28.79-1.41,1.21-2.16,1.29a28.66,28.66,0,0,1-3.11,0h-8.47a28.66,28.66,0,0,1-3.11,0c-.75-.08-1.89-.5-2.16-1.29a3.3,3.3,0,0,1,0-1.56,1.46,1.46,0,0,1,1.87-1.26c1,.36,1.55,1.68,1.77,2.66.16.69.17,1.4.34,2.09.68,2.81,1.17,5.67,1.79,8.49.38,1.73.65,3.51,1.09,5.23" transform="translate(-531.56 -183.9)"/><polygon class="cls-4" points="886.67 184.47 910.42 190.72 910.42 221.49 886.67 215.49 886.67 184.47"/><polygon class="cls-4" points="940.51 184.47 916.76 190.72 916.76 221.49 940.51 215.49 940.51 184.47"/><path class="cls-3" d="M1442,374.62v30.77a5.81,5.81,0,0,1,6.33,0V374.62A5.81,5.81,0,0,0,1442,374.62Z" transform="translate(-531.56 -183.9)"/><polygon class="cls-2" points="913.59 192.86 888.92 187.23 888.92 213.88 913.59 219.66 913.59 192.86"/><g class="cls-14"><path class="cls-5" d="M1442.64,379.9h-.13l-19.64-4.48a.59.59,0,0,1-.45-.71.6.6,0,0,1,.71-.45l19.64,4.48a.59.59,0,0,1-.13,1.17Z" transform="translate(-531.56 -183.9)"/></g><g class="cls-14"><path class="cls-5" d="M1442.64,383.43l-.13,0-19.64-4.48a.59.59,0,0,1-.45-.71.6.6,0,0,1,.71-.45l19.64,4.48a.59.59,0,0,1-.13,1.17Z" transform="translate(-531.56 -183.9)"/></g><g class="cls-14"><path class="cls-5" d="M1442.64,387h-.13l-19.64-4.48a.59.59,0,0,1-.45-.71.6.6,0,0,1,.71-.45l19.64,4.48a.59.59,0,0,1-.13,1.17Z" transform="translate(-531.56 -183.9)"/></g><g class="cls-14"><path class="cls-5" d="M1442.64,390.48l-.13,0L1422.87,386a.59.59,0,0,1-.45-.71.6.6,0,0,1,.71-.45l19.64,4.48a.59.59,0,0,1-.13,1.17Z" transform="translate(-531.56 -183.9)"/></g><g class="cls-14"><path class="cls-5" d="M1442.64,394l-.13,0-19.64-4.48a.59.59,0,0,1-.45-.71.6.6,0,0,1,.71-.45l19.64,4.48a.59.59,0,0,1-.13,1.17Z" transform="translate(-531.56 -183.9)"/></g><g class="cls-14"><path class="cls-5" d="M1442.64,397.54h-.13L1422.87,393a.59.59,0,0,1-.45-.71.6.6,0,0,1,.71-.45l19.64,4.48a.59.59,0,0,1-.13,1.17Z" transform="translate(-531.56 -183.9)"/></g><g class="cls-14"><path class="cls-5" d="M1442.64,401.07l-.13,0-19.64-4.48a.59.59,0,0,1-.45-.71.6.6,0,0,1,.71-.45l19.64,4.48a.59.59,0,0,1-.13,1.17Z" transform="translate(-531.56 -183.9)"/></g><polygon class="cls-2" points="913.59 192.86 938.25 187.23 938.25 213.88 913.59 219.66 913.59 192.86"/><g class="cls-14"><path class="cls-5" d="M1447.66,379.9a.59.59,0,0,1-.13-1.17l19.64-4.48a.59.59,0,1,1,.26,1.15l-19.64,4.48Z" transform="translate(-531.56 -183.9)"/></g><g class="cls-14"><path class="cls-5" d="M1447.66,383.43a.59.59,0,0,1-.13-1.17l19.64-4.48a.59.59,0,1,1,.26,1.15l-19.64,4.48Z" transform="translate(-531.56 -183.9)"/></g><g class="cls-14"><path class="cls-5" d="M1447.66,387a.59.59,0,0,1-.13-1.17l19.64-4.48a.59.59,0,1,1,.26,1.15l-19.64,4.48Z" transform="translate(-531.56 -183.9)"/></g><g class="cls-14"><path class="cls-5" d="M1447.66,390.48a.59.59,0,0,1-.13-1.17l19.64-4.48a.59.59,0,1,1,.26,1.15l-19.64,4.48Z" transform="translate(-531.56 -183.9)"/></g><g class="cls-14"><path class="cls-5" d="M1447.66,394a.59.59,0,0,1-.13-1.17l19.64-4.48a.59.59,0,1,1,.26,1.15L1447.8,394Z" transform="translate(-531.56 -183.9)"/></g><g class="cls-14"><path class="cls-5" d="M1447.66,397.54a.59.59,0,0,1-.13-1.17l19.64-4.48a.59.59,0,1,1,.26,1.15l-19.64,4.48Z" transform="translate(-531.56 -183.9)"/></g><g class="cls-14"><path class="cls-5" d="M1447.66,401.07a.59.59,0,0,1-.13-1.17l19.64-4.48a.59.59,0,1,1,.26,1.15l-19.64,4.48Z" transform="translate(-531.56 -183.9)"/></g><circle class="cls-4" cx="1468.78" cy="609.9" r="22.03" transform="translate(-532.64 1033.29) rotate(-45)"/><path class="cls-2" d="M1484.36,594.32a21.94,21.94,0,0,0-12.19-6.19l-.75.75c-6.53,6.53-7.66,16-2.53,21.13l.23.23c5.14,5.14,4,14.6-2.53,21.13l-.4.4a22,22,0,0,0,18.17-37.45Z" transform="translate(-531.56 -183.9)"/><circle class="cls-2" cx="930.12" cy="436.67" r="3.61"/><circle class="cls-4" cx="944.31" cy="415.33" r="3.61"/><path class="cls-3" d="M576.62,576.62a33.32,33.32,0,1,0,33.32,33.32A33.36,33.36,0,0,0,576.62,576.62Z" transform="translate(-531.56 -183.9)"/><rect class="cls-2" x="39.57" y="404.83" width="10.96" height="42.42"/><rect class="cls-2" x="23.85" y="420.56" width="42.42" height="10.96"/></g></g></svg>